# Blender v3.6.3 OBJ File: ''
# www.blender.org
mtllib simple tank turret without barrel.mtl
o Cube.001
v -0.409702 1.786277 0.552544
v -0.764527 2.540006 1.026568
v -0.409702 1.786277 -0.330751
v -0.764527 2.741894 -0.804774
v 0.409702 1.786277 0.552544
v 0.764527 2.540006 1.026568
v 0.409702 1.786277 -0.330751
v 0.764527 2.741894 -0.804774
v -0.764527 1.786277 -0.804774
v -0.764527 1.786277 1.026568
v 0.764527 1.786277 -0.804774
v 0.764527 1.786277 1.026568
v -0.409702 1.158442 -0.330751
v -0.409702 1.158442 0.552544
v 0.409702 1.158442 -0.330751
v 0.409702 1.158442 0.552544
vt 0.375000 0.000000
vt 0.625000 0.000000
vt 0.625000 0.250000
vt 0.375000 0.250000
vt 0.625000 0.500000
vt 0.375000 0.500000
vt 0.625000 0.750000
vt 0.375000 0.750000
vt 0.625000 1.000000
vt 0.375000 1.000000
vt 0.209792 0.524321
vt 0.290208 0.524321
vt 0.290208 0.524321
vt 0.209792 0.524321
vt 0.875000 0.500000
vt 0.875000 0.750000
vt 0.209792 0.725679
vt 0.125000 0.750000
vt 0.125000 0.500000
vt 0.290208 0.725679
vt 0.290208 0.725679
vt 0.209792 0.725679
vn -1.0000 0.0000 0.0000
vn 0.0000 0.0000 -1.0000
vn 1.0000 0.0000 0.0000
vn 0.0000 0.0000 1.0000
vn 0.0000 0.9940 0.1096
vn 0.0000 -1.0000 0.0000
usemtl None
s off
f 10/1/1 2/2/1 4/3/1 9/4/1
f 9/4/2 4/3/2 8/5/2 11/6/2
f 11/6/3 8/5/3 6/7/3 12/8/3
f 12/8/4 6/7/4 2/9/4 10/10/4
f 3/11/2 7/12/2 15/13/2 13/14/2
f 8/5/5 4/15/5 2/16/5 6/7/5
f 3/11/6 1/17/6 10/18/6 9/19/6
f 7/12/6 3/11/6 9/19/6 11/6/6
f 5/20/6 7/12/6 11/6/6 12/8/6
f 1/17/6 5/20/6 12/8/6 10/18/6
f 13/14/6 15/13/6 16/21/6 14/22/6
f 7/12/3 5/20/3 16/21/3 15/13/3
f 1/17/1 3/11/1 13/14/1 14/22/1
f 5/20/4 1/17/4 14/22/4 16/21/4
