# Blender 3.6.3
# www.blender.org
mtllib shotgun1 1.0.mtl
o simple_gun1
v 0.092675 -0.074452 0.516184
v 0.092675 -0.057665 0.590932
v 0.092675 -0.003109 0.662121
v 0.092675 0.041500 0.678428
v 0.059917 0.220447 0.285622
v 0.059917 0.233826 0.296577
v 0.059917 0.253544 0.293692
v 0.059917 0.315581 0.215785
v 0.030599 0.312441 -0.735425
v 0.030599 0.256074 -0.724722
v 0.059917 0.190064 0.003705
v 0.059917 0.141012 0.018132
v 0.059917 0.113600 0.072955
v 0.059917 0.113600 0.155191
v 0.092675 0.057806 0.347019
v 0.092675 0.006874 0.431177
v 0.092675 -0.049475 0.482894
v -0.088543 -0.074452 0.516184
v -0.088543 -0.057665 0.590932
v -0.088543 -0.003109 0.662121
v -0.088543 0.041500 0.678428
v -0.055785 0.220447 0.285622
v -0.055785 0.233826 0.296577
v -0.055785 0.253544 0.293692
v -0.055785 0.315581 0.215785
v -0.026467 0.312441 -0.735425
v -0.026467 0.256074 -0.724722
v -0.055785 0.190064 0.003705
v -0.055785 0.141012 0.018132
v -0.055785 0.113600 0.072955
v -0.055785 0.113600 0.155191
v -0.088543 0.057806 0.347019
v -0.088543 0.006874 0.431177
v -0.088543 -0.049475 0.482894
v 0.059917 0.318466 -0.740894
v 0.059917 0.204492 -0.719253
v -0.055785 0.204492 -0.719253
v -0.055785 0.318466 -0.740894
v 0.030599 0.309297 -1.508300
v 0.030599 0.252930 -1.508300
v -0.026467 0.252930 -1.508300
v -0.026467 0.309297 -1.508300
vn -0.0000 -0.9757 0.2191
vn -0.0000 -0.7937 0.6083
vn -0.0000 -0.3433 0.9392
vn -0.0000 0.9100 0.4146
vn -0.0000 -0.6335 0.7737
vn -0.0000 0.1448 0.9895
vn -0.0000 0.7823 0.6229
vn -0.0000 1.0000 0.0030
vn -0.0000 1.0000 -0.0041
vn -0.0000 -0.9998 -0.0200
vn -0.0000 -0.2822 -0.9594
vn -0.0000 -0.8944 -0.4472
vn -0.0000 -1.0000 -0.0000
vn -0.0000 -0.9602 -0.2793
vn -0.0000 -0.8555 -0.5178
vn -0.0000 -0.6762 -0.7367
vn -0.0000 -0.7999 -0.6001
vn -1.0000 -0.0000 -0.0000
vn -0.9971 0.0261 -0.0713
vn -0.4891 0.8564 0.1656
vn -0.9968 0.0614 -0.0503
vn 1.0000 -0.0000 -0.0000
vn 0.9971 0.0261 -0.0713
vn 0.4891 0.8564 0.1656
vn 0.9968 0.0614 -0.0503
vn -0.1434 -0.1846 -0.9723
vn -0.0000 -0.1054 -0.9944
vn 0.1434 -0.1846 -0.9723
vn -0.0000 -0.6722 -0.7404
vn -0.0000 -0.0000 -1.0000
vn -0.0000 -1.0000 0.0040
s 0
f 18//1 1//1 2//1 19//1
f 19//2 2//2 3//2 20//2
f 20//3 3//3 4//3 21//3
f 21//4 4//4 5//4 22//4
f 22//5 5//5 6//5 23//5
f 23//6 6//6 7//6 24//6
f 24//7 7//7 8//7 25//7
f 25//8 8//8 35//8 38//8
f 26//9 9//9 39//9 42//9
f 28//10 37//10 36//10 11//10
f 29//11 28//11 11//11 12//11
f 30//12 29//12 12//12 13//12
f 31//13 30//13 13//13 14//13
f 32//14 31//14 14//14 15//14
f 33//15 32//15 15//15 16//15
f 34//16 33//16 16//16 17//16
f 18//17 34//17 17//17 1//17
f 33//18 34//18 18//18
f 18//18 19//18 20//18
f 20//19 21//19 22//19
f 22//18 23//18 24//18
f 24//18 25//18 38//18
f 38//18 37//18 28//18
f 28//18 29//18 30//18
f 33//18 18//18 20//18
f 22//18 24//18 38//18
f 28//18 30//18 31//18
f 32//18 33//18 20//18
f 22//18 38//18 28//18
f 31//20 32//20 20//20
f 22//18 28//18 31//18
f 31//21 20//21 22//21
f 1//22 17//22 16//22
f 3//22 2//22 1//22
f 5//23 4//23 3//23
f 7//22 6//22 5//22
f 35//22 8//22 7//22
f 11//22 36//22 35//22
f 13//22 12//22 11//22
f 3//22 1//22 16//22
f 35//22 7//22 5//22
f 14//22 13//22 11//22
f 3//22 16//22 15//22
f 11//22 35//22 5//22
f 3//24 15//24 14//24
f 14//22 11//22 5//22
f 5//25 3//25 14//25
f 10//26 9//26 35//26 36//26
f 27//27 10//27 36//27 37//27
f 26//28 27//28 37//28 38//28
f 9//29 26//29 38//29 35//29
f 41//30 42//30 39//30 40//30
f 10//31 27//31 41//31 40//31
f 27//18 26//18 42//18 41//18
f 9//22 10//22 40//22 39//22
