# Blender v3.6.3 OBJ File: ''
# www.blender.org
mtllib simple tank bottom.mtl
o Cube
v 1.561550 1.660430 -2.930130
v 1.561550 0.549754 -2.930130
v 1.561550 1.660430 2.320721
v 1.561550 0.549754 2.930130
v -1.561550 1.660430 -2.930130
v -1.561550 0.549754 -2.930130
v -1.561550 1.660430 2.320721
v -1.561550 0.549754 2.930130
v 0.780775 0.549754 -2.930130
v 0.780775 0.549754 2.930130
v -0.780775 0.549754 -2.930130
v -1.561550 -0.059703 2.930130
v -1.561550 -0.059703 -2.930130
v -0.780775 0.549754 2.930130
v -0.780775 -0.059703 -2.930130
v 1.561550 -0.059703 2.930130
v 1.561550 -0.059703 -2.930130
v 0.780775 -0.059703 -2.930130
v 0.780775 -0.059703 2.930130
v -0.780775 -0.059703 2.930130
v 1.561550 1.660430 -1.210245
v -1.561550 1.660430 -1.210245
v -1.561550 1.932184 -1.210245
v -1.561550 2.174191 -2.930130
v 1.561550 2.174191 -2.930130
v 1.561550 1.932184 -1.210245
vt 0.625000 0.573371
vt 0.875000 0.573371
vt 0.875000 0.750000
vt 0.625000 0.750000
vt 0.375000 0.750000
vt 0.625000 1.000000
vt 0.375000 1.000000
vt 0.375000 0.937500
vt 0.375000 0.812500
vt 0.375000 0.000000
vt 0.625000 0.000000
vt 0.625000 0.176629
vt 0.625000 0.250000
vt 0.375000 0.250000
vt 0.375000 0.812500
vt 0.375000 0.750000
vt 0.375000 0.500000
vt 0.625000 0.500000
vt 0.375000 0.375000
vt 0.375000 0.312500
vt 0.187500 0.500000
vt 0.250000 0.500000
vt 0.250000 0.750000
vt 0.187500 0.750000
vt 0.375000 0.312500
vt 0.375000 0.250000
vt 0.312500 0.500000
vt 0.375000 0.500000
vt 0.312500 0.750000
vt 0.125000 0.500000
vt 0.187500 0.500000
vt 0.187500 0.750000
vt 0.125000 0.750000
vt 0.375000 0.000000
vt 0.375000 0.375000
vt 0.375000 1.000000
vt 0.375000 0.937500
vt 0.250000 0.500000
vt 0.250000 0.750000
vt 0.625000 0.176629
vt 0.625000 0.250000
vt 0.625000 0.500000
vt 0.875000 0.500000
vt 0.875000 0.573371
vt 0.625000 0.573371
vn 0.0000 1.0000 0.0000
vn 0.0000 0.4810 0.8767
vn -1.0000 0.0000 0.0000
vn 0.0000 0.0000 1.0000
vn 1.0000 0.0000 0.0000
vn 0.0000 0.0000 -1.0000
vn 0.0000 -1.0000 0.0000
vn 0.0000 0.9902 0.1393
usemtl Material
s off
f 21/1/1 22/2/1 7/3/1 3/4/1
f 4/5/2 3/4/2 7/6/2 8/7/2 14/8/2 10/9/2
f 8/10/3 7/11/3 22/12/3 5/13/3 6/14/3
f 4/5/4 10/9/4 19/15/4 16/16/4
f 2/17/5 1/18/5 21/1/5 3/4/5 4/5/5
f 6/14/6 5/13/6 1/18/6 2/17/6 9/19/6 11/20/6
f 11/21/7 9/22/7 10/23/7 14/24/7
f 6/14/6 11/20/6 15/25/6 13/26/6
f 18/27/7 17/28/7 16/16/7 19/29/7
f 13/30/7 15/31/7 20/32/7 12/33/7
f 11/21/5 14/24/5 20/32/5 15/31/5
f 8/10/3 6/14/3 13/26/3 12/34/3
f 2/17/5 4/5/5 16/16/5 17/28/5
f 9/19/6 2/17/6 17/28/6 18/35/6
f 14/8/4 8/7/4 12/36/4 20/37/4
f 10/23/3 9/22/3 18/38/3 19/39/3
f 5/13/3 22/12/3 23/40/3 24/41/3
f 25/42/8 24/43/8 23/44/8 26/45/8
f 22/2/4 21/1/4 26/45/4 23/44/4
f 21/1/5 1/18/5 25/42/5 26/45/5
f 1/18/6 5/13/6 24/41/6 25/42/6
