# Blender 3.6.3
# www.blender.org
mtllib tankBarrel2.mtl
o Cube
v -0.000000 -0.075748 -0.518504
v -0.000000 0.075748 -0.518504
v -0.054448 0.054448 -0.518504
v -0.054448 -0.054448 -0.518504
v 0.054447 0.054448 -0.518504
v 0.054447 -0.054448 -0.518504
v 0.075748 0.000000 -0.518504
v -0.075748 0.000000 -0.518504
v -0.054447 0.054448 1.962253
v 0.000000 0.075748 1.962253
v 0.054448 -0.054448 1.962253
v 0.000000 -0.075748 1.962253
v -0.075748 0.000000 1.962253
v -0.054447 -0.054448 1.962253
v 0.075748 0.000000 1.962253
v 0.054448 0.054448 1.962253
vn -0.0000 -0.0000 -1.0000
vn -0.0000 -0.0000 1.0000
vn 0.3643 -0.9313 -0.0000
vn 0.9313 0.3643 -0.0000
vn 0.3643 0.9313 -0.0000
vn -0.9313 -0.3643 -0.0000
vn -0.3643 0.9313 -0.0000
vn -0.9313 0.3643 -0.0000
vn -0.3643 -0.9313 -0.0000
vn 0.9313 -0.3643 -0.0000
vt 0.375000 0.500000
vt 0.500000 0.500000
vt 0.625000 0.500000
vt 0.625000 0.625000
vt 0.625000 0.750000
vt 0.500000 0.750000
vt 0.375000 0.750000
vt 0.375000 0.625000
s 0
usemtl Material
f 4/1/1 8/2/1 3/3/1 2/4/1 5/5/1 7/6/1 6/7/1 1/8/1
f 14/1/2 12/8/2 11/7/2 15/6/2 16/5/2 10/4/2 9/3/2 13/2/2
f 6/7/3 11/7/3 12/8/3 1/8/3
f 5/5/4 16/5/4 15/6/4 7/6/4
f 2/4/5 10/4/5 16/5/5 5/5/5
f 4/1/6 14/1/6 13/2/6 8/2/6
f 3/3/7 9/3/7 10/4/7 2/4/7
f 8/2/8 13/2/8 9/3/8 3/3/8
f 1/8/9 12/8/9 14/1/9 4/1/9
f 7/6/10 15/6/10 11/7/10 6/7/10
